<?xml version="1.0" encoding="UTF-8"?>
<svg id="Capa_2" data-name="Capa 2" xmlns="http://www.w3.org/2000/svg" viewBox="0 0 774 793.02">
  <path d="M414.48,127.9c-.91,4.1-1.82,8.19-2.49,11.2,2.43,4.81,4.45,8.79,6.37,12.59-3.65,5.04-4.76,10.39-3.54,16.25-4.03,5.42.25,10.94-.55,16.06,2.73,2.67,5.17,1.49,8.03.81-.95,1.12-1.91,2.23-2.94,3.44,1.48,1.88,2.09,4.16,3.89,6.15,2.15,2.38,2.65,6.47,3.29,9.93.44,2.42.49,5.22-.3,7.5-1.96,5.66.27,9.73,4,13.54.44.45.83.96,1.23,1.44-.64,2.07-1.28,4.11-2.4,7.71,3.25-1.23,5.31-1.6,6.82-2.71,1.08-.8,2.23-1.93,1.45-4.23-1.05-3.15-.95-6.41,1.38-9.72,1.77-2.51,1.75-6.27,2.65-9.96,5.94.57,7.52-3.5,8.52-8.35.99-4.84,3.18-9.63,3.19-14.44.01-4.92.63-9.5,1.9-14.16.46-1.68.07-3.59.07-5.41,4.95-3.07,8.3-7.07,8.92-13.25.75-7.52,1.9-15,3.15-22.45.37-2.17,1.56-4.25,2.61-6.26,1.72-3.3,3.62-6.51,6.02-10.78.69-.45,2.52-1.65,4.11-2.7-1.83-4.07-3.21-7.55-4.92-10.86-1.65-3.22-1.03-6.04,1.17-8.52,4.72-5.33,6.77-11.36,6.55-18.54-.1-3.33,1.36-6.32,4.23-9.19,3.52-3.51,7.58-7.48,7.8-13.36.05-1.37,1-2.8,1.81-4.02,3.78-5.7,5.57-12.25,7.88-18.54.96-2.61.61-5.7.93-9.42.74-.47,2.28-1.43,3.78-2.38.37-6.22,5.46-13.28,10.35-14.84,2.64-.84,4.73-.56,7.14.94,5.15,3.19,10.59,3.36,16.04.42.88-.47,2.56-1.03,2.93-.65,3.29,3.43,8,1.75,12.18,3.41-.82,1.02-1.42,1.75-2.17,2.68,2.95,3.61,4.97.03,7.29-1.21,3.9,1.94,6.13,4.42,6.44,9.17.23,3.54,2.01,7.11,3.64,10.41,1.71,3.47,2.21,6.93,2.11,10.72-.09,3.49.41,7,.72,10.5.05.61.7,1.22.63,1.77-.65,5.4-1.39,10.8-2.13,16.19-.13.94-.73,1.91-.58,2.77.68,3.87.8,4.32-.48,9.26-1.65.36-3.54.56-5.25,1.22-1.3.5-2.67,1.36-3.49,2.45-1.93,2.57-.92,6.68-4.56,8.65-.47.26.56,3.5,1.06,5.32,2.24,8.11,2.16,15.94-2.1,23.51-2.35,4.18-3.66,8.6-.44,13.09.36.5.71,1.17.68,1.75-.24,5.05,2.27,9.6,2.74,14.37.29,2.99.96,7.02-2.29,9.86-.94.82-1.22,3.08-.94,4.51,1.69,8.8,2.92,17.46-.13,26.34-1.05,3.06-.11,6.74-.52,10.08-.45,3.72-1.37,7.38-2.13,11.05-.49,2.35-2.46,4.66.39,7.12-2.58,1.31-4.78,2.42-7.47,3.78,0,.7-.25,1.79.04,2.7,1.61,4.94.64,9.81.21,14.78-.21,2.47.87,5.42,2.25,7.58,1.7,2.67,1.74,5.2.93,7.86-1.04,3.41-2.36,6.74-3.71,10.05-1.04,2.57-1.23,4.71,1.06,6.9,1.53,1.46,3.59,3.07,2.09,6.03-.27.52,1.8,2.23,3.07,3.72-1.7,1.5-3.37,2.98-5.67,5.01,1.96,3.16,3.9,6.3,5.31,8.58-.33,5.08-.7,9.39-.86,13.7-.11,3.04-.33,5.9-3.25,7.76-.66.42-1.39,1.24-1.48,1.96-.4,3.09-.71,6.2-.76,9.31-.02.9.92,1.82,1.67,3.2-3.33.67-3.74,3.06-2.97,5.69,1.81,6.13,1.61,12.07.23,18.35-.66,3.02,1.33,6.64,2.2,9.96,1.53,5.83,4.32,11.62,4.4,17.46.09,6.91,3.69,14.44-2.17,21.05-1.1,1.24-.79,4.7.1,6.55,2.28,4.74.21,9.08-.88,13.29-.75,2.89-2.11,5.38.14,8.43.86.18,2.43.52,4.99,1.07,1.32-.21,4.78-3.94,4.71-6.52-.06-2.08-.32-4.29-1.12-6.18-2.32-5.47-2.43-11.05-1.22-16.68.41-1.92,1.3-4.21,2.74-5.34,4.59-3.62,5.11-8.76,4.82-13.64-.26-4.32.94-7.83,2.65-11.48,1.88-4,3.85-7.98,3.2-12.68-.13-.95.29-2.11.78-3,4.62-8.47,4.51-17.76,4.94-26.99.25-5.35-.07-10.69,2.26-15.91,1.37-3.08,1.03-6.9,1.64-10.36.35-2.02,1.23-3.95,1.54-5.97.34-2.21.33-4.49.44-6.74.3-6.64-.83-13.41,1.87-19.84.47-1.12.52-2.42.75-3.63.23-1.24.16-2.63.72-3.7,4.37-8.48,4.15-8.49,5.38-19.81.62-5.73,2.3-11.35,3.65-16.98.64-2.7.81-5-.31-7.87-1.31-3.35-.5-7.47-1.52-11-2.52-8.69,2.87-13.71,7.94-19.11,5.78-6.15,8.42-13.7.41-20.14,1.42-.63,2.58-1.15,4.47-1.98.09-1.8.11-4.28.34-6.74.53-5.84.56-11.82,1.9-17.48,1.13-4.76,3.64-9.23,5.86-13.67,2.7-5.39,5.81-10.58,8.56-15.95.63-1.23.69-2.85.7-4.3.05-5.04-.11-10.09-.01-15.13.03-1.43.24-3.27,1.12-4.18,2.61-2.69,2.49-6.14,3.21-9.34.87-3.9,1.62-7.56,4.61-10.8,2.5-2.72,3.62-6.77,2.83-10.7-.83-4.19.36-7.6,3.48-10.2,2.51-2.09,3.72-4.91,3.73-7.74.02-6.78,5.03-8.85,9.77-10.88,4.24-1.82,8.65-3.21,13.57-3.12,2.61.05,5.27-2.24,7.99-3.51,2.2,3.25,5.51,2.97,9.03,2.37,7.95-1.35,12.43,1.65,14.7,9.57.28.99.75,2,1.37,2.82,2.91,3.83,4.09,8.29,5.1,12.87.41,1.83.87,3.82,1.92,5.3,3.67,5.15,4.89,11.37,7.66,16.78,3.3,6.45,5.42,13.72,11.07,18.98,3.71,3.46,6.89,7.56,6.23,13.28-.09.81,0,1.83.44,2.48,3.1,4.73,6.3,9.39,9.66,14.36-1.94,8.36-3.48,17.25.95,25.85,1.83,3.56,1.48,6.36-1.55,9.02-3.5,3.08-3.75,7.46-4.03,11.66-.16,2.49.2,5.06.65,7.54.29,1.59.84,3.38,1.88,4.54,4.18,4.7,8.7,9.1,12.86,13.82.96,1.08,1.28,2.98,1.36,4.53.23,4.45.8,8.58,3.18,12.67,2.25,3.86,2.21,8.81,5.54,12.47.92,1.02.2,3.63.05,5.5-.17,2.26-.53,4.51-.85,7.15,1.87.14,3.19.23,4.18.3-.47,1.42-1.52,2.87-1.2,3.89,2.21,6.9.19,13.82.28,20.71.05,3.63-.36,7.06,1.87,10.26.65.94.78,2.32.92,3.52.88,7.92,1.86,15.84,2.46,23.79.31,4.16-.44,8.41-.07,12.56.41,4.56.75,9.41,2.55,13.49,3.04,6.89,1.52,13.27-.46,19.75-2.1,6.88-2.57,13.76-2.81,20.98-.4,11.66,1.37,23.08,1.53,34.6.08,5.77-2.49,11.53-3.12,17.37-1.33,12.33-2.72,24.67-1.47,37.14.56,5.62.66,11.34-3.83,15.9-1.5,1.52-1.93,3.31-1.66,5.72.5,4.54,2.02,9.1.61,13.78-.19.64.47,1.57.8,2.34,3.72,8.6,3.76,17.09-.27,25.69-1.12,2.39-1.56,5.27-1.63,7.95-.19,6.95-.09,13.9.1,20.85.06,2.29.77,4.56,1.26,7.22-4.74,1.23-5.8,6.62-10.15,8.66-1.04.49-1.6,4.25-.88,5.82,2.33,5.06.06,10.13,1.2,15.54h-7.7c.34,1.86.61,3.34.97,5.29-.96.63-2.33,2.26-3.7,2.26-4.24,0-6.4,2.51-8.41,5.63-.61.95-1.55,1.96-2.56,2.34-2.05.77-2.85,2.01-3.22,4.16-.75,4.28-3.51,6.58-7.46,7.13-5.93.83-11.25,2.64-13.06,9.29-.62,2.29-2.37,2.95-4.38,2.86-7.81-.36-12.35,5.21-16.37,10.22-3.52,4.39-6.88,7.22-12.58,7.23-3.42,0-5.88,1.78-6.77,5.34-.25.98-.57,2.04-1.19,2.82-2.79,3.52-6.14,6.63-7.53,11.13-.21.68-1.11,1.47-1.83,1.63-5.86,1.29-9.91,6.03-15.37,7.98-2.7.96-6.35.51-8.25,2.2-3.33,2.94-6.87,2.87-10.61,2.74-3.51-.13-7.04-.52-10.5-1.11-.75-.13-1.28-1.59-2.23-2.89-1.1.43-3.15.6-4.01,1.7-1.97,2.5-5.22,2.42-6.9,1.91-5.15-1.56-11.01-1.22-15.36-5.49-1.87-1.83-4.61-3.12-7.18-3.83-4.4-1.22-5.32-4.29-5.1-8.55-2.8,0-5.31.38-7.67-.08-4.31-.84-5.19-2.4-4.81-6.65.45-5.09-.56-10.05-3.22-14.28-2.23-3.55-1.96-6.62-.56-10.14,1.07-2.7,2.56-5.55,2.53-8.32-.04-4.32-.39-8.88-4.89-11.72-1.2-.76-1.46-2.93-2.33-4.35-1.14-1.85-2.46-3.59-3.59-5.22-3.95,1.57-2.56,3.45-1.42,5.3,1.59,2.57,3.18,5.15,5.32,8.61-4.77.53-5.87,2.52-6.2,6.26-.43,4.93-1.98,9.9-3.85,14.53-1.83,4.52-1.26,9.02-1.41,13.57-.01.37.63.92.52,1.09-4.37,6.54-.15,13.36-.69,20.01-.05.57,0,1.15,0,1.82h6.3c-4.17,4.35-7.9,8.29-7.8,13.51.09,4.31-3.18,8.85.64,13.12.73.81.74,3.4.02,4.17-4.19,4.46-3.38,10.07-4.09,15.58,1.9.73,3.85,1.47,5.99,2.29,0,2.51.29,5.12-.13,7.6-.18,1.06-1.84,1.86-2.83,2.78-.73-1.04-1.94-2.01-2.1-3.13-.46-3.19-2.19-4.27-5.11-4.05-3.34,7.05-2.82,9.95,2.77,14.32,1.61,1.26,2.82,2.45,2.37,4.73-.19.96-.24,2.25.25,2.98,1.94,2.85,1.06,5.24-.89,7.49-2.47,2.84-2.69,5.89-1.76,9.46.47,1.81-.18,3.94-.45,5.91-.17,1.17-.66,2.29-.89,3.45-.39,2-.37,4.14-1.1,6-1.14,2.88-2.86,5.52-1.88,8.88.18.62-.55,1.5-1.05,2.73-3.91-1.94-7.32-.81-10.54,1.47-.86.61-1.79,1.19-2.78,1.53-4.66,1.59-10.45.29-13.14,6.81-2.61-3.25-4.14-5.52-6.04-7.43-1.66-1.66-3.71-2.69-1.87-5.71.31-.51-2.59-3.03-4.07-4.55-.8-.82-1.74-1.5-3.14-2.69,7.09-3.22,5.52-9.55,6.4-15.35-1.8-2.74-6.14-4.05-6.53-8.35-3.32-.96-2.28-3.52-2.04-5.73.34-3.14.61-6.3,1.24-9.38.3-1.47,1.37-2.79,1.93-3.87-1.79-2.59-3.55-5.06-5.22-7.58-2.11-3.19-1.85-6.07,1.22-8.33,4.13-3.03,5.9-7.24,6.7-12,.19-1.12-.08-2.61-.72-3.51-1.5-2.1-3.74-3.38-3.93-6.65-.14-2.43-2.33-4.74-3.62-7.15,2.37-1.32,4.41-3.16,6.72-3.58,3.92-.72,4.56-3.55,4.98-6.41.45-3.06-1.28-5.15-4.18-6.34-.91-.37-1.62-1.25-2.74-2.16,2.35-3.23,1.23-6.26-.16-9.43-.82-1.86-.95-4.02-1.4-6.04-.27-1.19-.23-2.63-.91-3.52-1.31-1.7-3.26-3.32-2.1-5.53,1.24-2.35,3.09-4.43,4.92-6.39,1.07-1.15,2.63-1.85,4.27-2.95-1.45-1.57-2.51-2.74-3.58-3.9l.4-1.17c1.58.23,3.16.47,3.89.58,1.26-4.3,2.51-8.6,3.69-12.65-1.67-2.14-3.17-4.22-4.85-6.15-1.49-1.71-2.97-3.59-4.84-4.78-2.47-1.57-3.08-3.48-1.96-5.89,1.71-3.67,1.87-8.02,5.63-10.91,1.09-.84.72-4.34.16-6.39-.72-2.67-1.15-5.1-.74-7.93.5-3.4.96-6.88-2.55-9.79-1.42-1.18-1.97-5.09-1.15-6.99,2.91-6.74,2.27-14.03,3.96-20.94.41-1.67-1.37-3.88-2.36-6.4,2.6-1.6,5.8-3.33,7.2-7.07.76-2.04,1.52-3.66.67-5.94-1.3-3.51-1.76-7.3-4.95-9.96-.96-.8-1.46-2.65-1.46-4.02,0-3.7.74-7.42.47-11.09-.23-3.13.71-5.44,2.08-8.17,1.51-3,1.93-6.8,1.93-10.25,0-5.01,1.28-9.53,4.22-13.33,3.12-4.03,4.16-8.53,4.41-13.31.08-1.54-.36-3.88-1.42-4.58-4.16-2.78-3.32-6.51-2.5-10.23.96-4.36,2.01-8.63-2.26-12.52,2.12-.48,4.4-.41,4.77-1.22.57-1.23-.18-3.07-.36-4.66-.38-3.3-.9-6.59-1.05-9.89-.05-1.08.85-2.24,1.4-3.31,1.79-3.5,3.62-6.99,4.99-9.61-2.38-3.56-4.06-6.07-5.75-8.59,2.27-9.28,6.33-17.98,4.05-27.83h-5.2c2.43-3.03,5.04-5.35,3.58-9.02-1.14-2.86,1.66-6.94-3.51-8.61,2.48-2.22,4.41-3.94,6.91-6.17-1.39-.08-2.07-.12-3.57-.21,3.06-2.72,2.26-5.74,1.39-8.91,1.37-1.2,2.73-2.4,4.37-3.83-1.64-3.72-3.29-7.47-4.88-11.1,6.22-8.15,9.46-16.82,6.73-26.98-.21-.77-.12-1.68.04-2.49,1.03-5.07.97-5.83-1.08-9.64.93-.26,1.83-.51,2.72-.76-.86-4.11-12.84-1.89-15.38,2.81-1.3,2.4-2.54,4.83-3.81,7.25-1.98.2-3.83.38-6.48.65,1.42,5.42,2.76,10.51,3.95,15.02-2.73,4.11-5.15,7.75-7.53,11.33,1.66,1.86,3.92,3.28,3.99,4.78.08,1.75-1.78,3.58-2.8,5.37-.63,1.1-1.43,2.12-1.91,3.28-3.21,7.75-6.23,15.57-9.56,23.27-1.57,3.62-3.94,6.91-5.42,10.56-.98,2.41-1.36,5.21-1.33,7.83.02,1.21,1.66,2.41,3.14,4.38-.82,1.15-1.82,3.26-3.43,4.66-2.7,2.35-3.36,5.06-2.22,8.19.64,1.77,1.1,3.15-.67,4.47-.44.33-.96,1.23-.8,1.58,2.75,6.14-2.04,10.59-3.41,15.8-.45,1.7-.34,3.55-.52,5.84-2.42,2.25-5.12,5.18-10,3.68-.24.62-.47,1.24-.71,1.86,1.54-.2,3.09-.4,3.26-.42-3.85,6.28-6.74,11-9.72,15.86,1.01,1.27,1.87,2.36,3.24,4.08-4.15,4.18-8.21,8.27-12.43,12.53-8.37-2.77-15.34,2.91-21.85,3.4-4.8-1.84-8.47-3.35-12.21-4.63-3.22-1.1-7.36-7.17-7.51-10.71-.1-2.25-.29-5-1.58-6.6-4.62-5.73-4.66-12.69-6.05-19.32-.21-1-.26-2.25-.89-2.91-4.23-4.49-2.74-9.07-.26-13.55,3-5.4,2.5-13.68-1.45-18.09-2.07-2.31-4.27-4.5-6.39-6.76-.41-.44-.98-.98-1.02-1.5-.37-5.75-4.18-11.34-1.19-17.2,2.03-3.97.16-8.25,1.54-12.43.64-1.95-2.36-5.1-3.7-7.71-.85-1.67-1.67-3.35-2.64-5.29-2.46,1.79-3.21,4.34-4.33,7.31-2.1,5.55-5.66,10.62-9.1,15.56-1.82,2.62-4.19,4.74-4.16,8.26.02,2.02-.95,3.33-2.71,4.62-2.44,1.79-4.32,4.33-6.42,6.53,1.99,3.24,3.6,5.88,5.27,8.61-1.93,1.42-3.4,2.51-5.14,3.8.47,2.54.61,5.12,1.48,7.43.96,2.53.87,4.62-1.18,6.3-5.31,4.36-5.13,10.92-6.36,16.72-.52,2.43,1.05,6.05,2.86,8.06,2.73,3.03,2.18,6.66,3.41,9.85,1.56,4.05-1.53,6.65-1.28,9.67h-6.81c1.56,3.29,2.68,5.75,3.9,8.17,1.05,2.09,1.64,3.98,1.14,6.57-.64,3.29,0,6.82-.02,10.25-.02,1.94-4.03,12.01-5.19,13.43-1.77,2.18-2.53,6.48-1.63,9.64-2.59,1.63-5.23,3.29-7.69,4.84,0,10.06.76,20.08-.3,29.89-.59,5.4-1.27,12.31-9.22,14.45.17,3.8.4,7.6.47,11.41.03,1.7,1.02,3.65-1.2,4.98-.38.23.06,1.82.22,4.38,1.08-1.98,1.27-2.81,1.78-3.14.92-.61,2.02-1.16,3.08-1.26.46-.04,1.59,1.33,1.45,1.66-.42,1-1.14,2.12-2.05,2.64-3.35,1.9-6.96,3.44-4.42,8.47.38.74-.42,2.01-.4,3.02.04,1.6.32,3.19.62,5.77-2.07,1.42-3.87,4.3-3.35,8.5.91.39,1.98.85,2.98,1.28-3.99,5.07-7.23,10.31-7.29,17.1-.03,2.82-1.07,5.63-1.72,8.43-.19.79-.49,2.08-.97,2.2-6.19,1.53-5.25,8.67-10.11,11.84,1.93,1.53,3.48,2.75,5.31,4.21.14,1.71.19,4,.56,6.23.5,2.97.05,5.63-.87,8.56-2.82,9.04-7.15,18.07-2.54,27.86.29.61.06,1.81-.38,2.37-2.4,3.01-5.05,5.82-7.38,8.87-1.14,1.49-1.8,3.36-2.99,5.66-4.12.97-9.29,2.2-14.07,3.32-1.75-1.98-2.95-3.96-4.68-5.18-7.07-4.98-11.91-14.91-9.52-22.9,1.2-4.01,3.19-7.65,2.42-12-.13-.74-.02-1.88-.45-2.15-3.88-2.41-1.91-5.7-1.39-8.72.74-4.28,1.63-8.53,2.46-12.79.73-3.72.14-5.93-2.34-9.38,1.4-5.03,2.37-9.89,4.14-14.43,1.19-3.04,3.44-5.69,5.35-8.43,1.08-1.54,2.76-2.74,3.54-4.4.97-2.04,1-4.24-1.92-4.42,1.12-2.39,2.26-4.65,3.25-6.98,1.04-2.47,1.93-5,3.28-8.52-.56-1.23-2.56-3.38-.79-6.36.51-.86-.4-3.32-1.4-4.21-5.98-5.34-4.75-12.25-3.58-18.61.84-4.57,2.34-9.19,5.32-13.34,1.98-2.75,2.98-6.72.76-10.77-2.83-5.15-2.46-10.55,1.44-15.29,3.18-3.88,1.12-7.89.39-11.86-.13-.7-.87-1.71-1.48-1.83-4.59-.9-3.74-3.45-3.21-7.08.62-4.18,2.19-7.49,4.56-10.73,2.83-3.88,4.49-8.11,2.96-12.89,1.58-1.46,2.96-2.74,4.31-3.99-.42-4-.86-7.8-1.19-11.6-.06-.68.17-1.48.52-2.08,2.79-4.81,2.82-9.88,1.79-15.17-.29-1.5.04-3.16.31-4.71.55-3.16,2.32-6.13.28-9.55-.64-1.07-.05-3.32.67-4.67,2.73-5.15,2.6-5.85-2.4-8.68,2.39-7.23,4.84-14.33,6.98-21.54.29-.98-1.01-2.44-1.74-4.04,3.01-2.93,4.52-6.3,3.45-11.06-.55-2.42.56-6.59,2.4-7.92,5.59-4.03,5.01-9.48,4.56-14.86-.19-2.25.62-3.52,1.66-5.09,4.22-6.39,8.92-12.57,9.16-20.73.02-.61.65-1.36.46-1.81-1.91-4.41-.42-8.04,2.4-11.42.12-.14.2-.43.15-.6-2.06-5.96-.08-11.93.02-17.88.1-5.98.64-11.99,1.49-17.91.22-1.53,2.47-2.71,3.58-4.2.94-1.27,2.57-3.2,2.18-4.07-1.66-3.68.66-6.28,1.92-9.72-1.5-.38-2.94-.74-3.93-.99-.36-2.86-.66-5.31-1.02-8.18,8.42-3.76,8.6-12.71,10.77-20.36.64-2.24-1.09-5.14-1.71-7.75-1.68-7.03,1.63-13.47,2.45-20.21.38-3.1,1.38-6.15,2.28-9.17.39-1.31.23-1.95-.63-3.2-2.21-3.21-1.53-6.83.1-10.21.44-.92,1.12-1.74,1.63-2.63,3.46-5.98,1.12-12.01.06-18.49,2.92-1.7,5.69-3.96,5.86-7.92.06-1.37-.37-2.77-.55-4.15-.17-1.32-.38-2.65-.44-3.98-.03-.61.59-1.58.36-1.79-3.26-3-.82-6.94-1.73-10.33-.41-1.52-.31-3.35.11-4.89,1.99-7.3,4.13-14.55,6.31-21.79.47-1.57,1.21-3.09,2.06-4.5,1.26-2.11,3.48-3.9,1.2-6.74-.32-.4.6-1.77.9-2.7.29-.92,1-2.07.7-2.75-1.85-4.21-.63-5.56,3.84-7.04,2.82-.93,4.98-4.31,8.8-4.35.64,0,1.58-1.7,1.83-2.75.74-3.18,1.21-6.42,1.82-9.83,3.47.06,6.59-1.57,10.44.02,2.38.98,5.99-.65,8.93-1.49,7.36-2.11,13.56.8,18.58,5.33,3.8,3.43,8.89,5.66,11.25,10.64.43.92,1.29,1.85,1.24,2.74-.18,3,1.45,5,2.81,7.44,1.42,2.52,1.63,5.94,1.66,8.97.06,4.99-.85,10.02-.52,14.98.12,1.79,2.64,3.41,4.44,5.56-1.56,4.1.08,9.43-3.15,13.84-.63.87-.74,2.63-.32,3.67,1.91,4.73.28,9.06-.92,13.54-.38,1.4.27,3.08.44,4.63l-.12-.1-.02-.09ZM634.51,596.4c5.83,3.55,8.51-1.53,12.72-3.25-2.06-5.24-1.07-8.93,4.48-10.39.19-.05.45-.18.52-.34,2.3-5.77,8.01-5.71,12.65-6.81,3.36-.8,4.89-2.36,5.11-5.34.25-3.46.3-6.98-.09-10.42-.19-1.71.32-1.66,1.52-2.42,2.35-1.5,4.72-3.49,6.11-5.85,3.78-6.44,6.77-13.39,13.13-17.92.32-.23.57-.65.7-1.03,1.43-4.17,2.82-8.36,4.24-12.54.53-1.55.84-3.27,1.73-4.58,1.83-2.68,2.04-5.32,1.23-8.4-.57-2.17-1.1-4.8-.4-6.77,1.5-4.21,4-8.06,5.72-12.21,1.06-2.56,2.82-5.33-.28-8.08-.66-.59-.44-2.83.08-4,3.46-7.79,6.9-15.61,10.8-23.19,1.64-3.18,2.31-6.05,1.62-9.54-.6-3.06-1.12-6.32-.71-9.36.83-6.19-.06-12.77,3.68-18.44.63-.96.64-2.49.55-3.73-.49-6.5-.81-13.03-1.79-19.45-.47-3.09-.72-5.79,1.1-8.45,1.64-2.39,1.63-4.92,1.19-7.8-.82-5.43-1.9-10.7-4.18-15.75-2.07-4.59-4.36-9.24-5.35-14.11-1.16-5.73-2.65-11.49-1.29-17.67,1.2-5.47.68-11.29,1.38-16.9.63-5.08.4-9.57-4.06-12.98-.77-.59-1.18-1.7-1.66-2.61-2.76-5.25-.88-11.74-4.43-16.79,1.65-5.59,2.52-11.29,2.48-17.13-.02-3.47.47-6.96.25-10.41-.25-3.76-.98-7.5-1.65-11.22-.44-2.44-1.16-4.83-1.76-7.31,5.22-2.04,3.85-7.28,5.2-11.18-5.46-4.96-11.26-7.88-18.51-6.99-.66,1.12-1.08,2.88-2.14,3.44-3.04,1.61-3.77,4.15-4.05,7.19-.11,1.22-.43,2.63-1.16,3.56-2.03,2.59-1.83,5.5-1.79,8.46.05,3.71,2.05,6.89,2.77,10.25.77,3.56-.99,7.65-1.59,11.52-.13.82.02,1.69,0,2.53-.12,5.38-2.8,9.59-6.27,13.39-1.64,1.79-3.41,3.47-5.32,5.4,2.53,3.67,2.48,6.56-.29,9.95-4.53,5.54-3.51,12.98-5.21,19.51-.4,1.53,1.22,3.81,2.32,5.46,1.64,2.46,3.46,9.08,2.62,11.63-.85,2.6-1.13,4.86-.3,7.79,1.52,5.35-1.19,7.38-6.87,6.17-1.15-.24-2.4-.04-4.6-.04,1.08,3,1.73,5.34,2.76,7.51,1.18,2.5,2.68,4.86,4.25,7.63-7.53,3.07-3.83,8.87-5.37,13.77,2.4-.79,5.46-2.35,5.13.45-.59,5-2.07,10.16-4.42,14.6-2.44,4.6-6.61,7.89-7.45,13.83-.88,6.27-3.95,12.22-5.94,18.35-.51,1.57-.94,3.32-.79,4.93.53,5.62,1.33,11.21,2.16,17.93-3.13,4.69-7.38,10.12-10.56,16.11-3.18,6-4.78,12.83-9.89,17.6,2.7,4.18,3.79,8.26,1.36,13.53,3.03.4,5.5.73,8.28,1.1-1.81,2.67-3,5.62.85,9.6-4.3-1.14-6.88-1.82-9.87-2.61-1.26,3.72-2.69,7.39-3.65,11.18-.28,1.09.89,2.5,1.23,3.81.15.56.11,1.47-.24,1.81-4.13,3.98-3.77,9.62-5.4,14.41-3.75,2.63-9.07,3.63-8.91,9.71.01.44-.94.83-1.21,1.36-1.13,2.21-2.49,4.37-3.16,6.72-1.43,4.97-.72,10.69-5.58,14.41-.89.68-1.38,2.15-1.66,3.35-1.23,5.27-.98,11.02-5.43,15.19-.46.43.25,1.95.13,2.92-.19,1.52-.2,3.33-1.03,4.46-3.04,4.14-4.92,8.45-2.61,13.44,1.54,3.33,3.85,6.31,5.27,9.67,1.91,4.54,5.49,6.67,10.45,5.6,1.01-.22,2.24-.57,3.08-.2,3.61,1.6,5.28-.51,6.57-3.36.92.83,1.62,1.47,2.32,2.1,3.69-5.69,7.73-10.02,14.45-9.3,1.55-2.13,2.9-3.97,4.71-6.44l.02-.02ZM550.08,433.47c-.58,4.64-1.18,8.91-1.64,13.2-.43,3.98,1.19,8.29-2.62,11.64-3.35,2.94,1.97,8.9-4.42,11.18,1.96,2.08,3.7,3.55,4.94,5.36.97,1.41,1.9,3.27,1.81,4.87-.16,2.82-1.21,5.59-1.69,8.41-.21,1.23.09,2.54.17,3.81,2.6-5.57,6.21-10.8,2.73-17.13-.63-1.14-.22-3.75.71-4.69,2.56-2.58,1.94-5.89,2.66-8.83.73-2.95,1.61-6.53.59-9.1-1.78-4.46-.64-8.15.67-12.16.68-2.08,1.06-4.26,1.72-7.04-2.53.21-4.11.34-5.62.47h0ZM543.03,581.67c3.48-4.62,1.27-9.18,1.69-13.46.1-.98-1.4-2.13-2.42-3.55-1.8,6.03-3.16,11.32.74,17.02h-.01Z" fill="#000" stroke-width="0"/>
  <path d="M168.08,317.97c0,3.06-.88,6.34,3.29,7.87,1.04.38,1.68,2.38,2.12,3.76,1.94,6,2.87,12.2,2.2,18.47-.32,3-.6,5.51,3.26,6.34-5.83,8.55-1.61,15.44,2.51,23-3.2,2.41-6.29,4.74-9.47,7.12,1.96,3.34,2.26,7.54,5.73,10.22.93.72,1,2.97.91,4.48-.33,5.61-1.04,11.2-1.27,16.81-.07,1.78.55,3.85,1.53,5.35,1.77,2.72,1.85,5.54,1.51,8.52-.1.84-.73,1.84-.44,2.46,2.98,6.37-2.73,10.4-4.02,15.96,1.08,1.43,2.54,3,3.56,4.82.98,1.75,1.5,3.76,2.54,6.48,1.9-4.48,5.8-7.49,3.22-12.79-.57-1.17.51-3.65,1.54-4.98,2.79-3.63,4.04-7.76,5.31-12.07,2.67-9.06,3.75-18.49,7.34-27.4,2.54-6.3,3.64-13.25,2.22-20.35-.4-2.02.59-4.56,1.56-6.57,2.17-4.5,3.51-8.77,1.77-13.94-.9-2.67.23-6.02-3.44-8.36,5.09-1.9,4.68-5.47,3.78-8.87-1.25-4.67-.51-9.01,1.28-13.32.4-.97,1.23-2.01,1.09-2.91-1.37-9.14,4.46-15.96,7.44-23.69,1.88-4.9,3.72-9.82,5.5-14.76.26-.73.12-1.6.17-2.4.2-3.96.52-7.92.57-11.89.07-6.23,1.67-11.97,4.08-17.72,1.49-3.55,2.25-7.8,1.88-11.6-.3-3.07-2.78-5.94-4.43-9.15.68-1.18,1.5-2.61,2.27-3.95-.82-.96-1.45-1.71-2.02-2.37.71-3.41,6.19-1.38,5.98-5.96-.73.11-1.41.22-2.5.39.37-1.2,1.12-2.32.92-3.24-1-4.6-2.38-9.12-3.34-13.73-.22-1.05.46-2.47,1.11-3.49,1.34-2.12,2.94-4.08,4.63-6.38,1.71,1.05,3.22,1.98,4.41,2.71,6.21-7.08,4.25-13.95-.42-20.19,1.78-3.01,3.24-5.46,4.37-7.37-3.17-4.31-6.09-7.86-8.51-11.73-1.57-2.51-.91-5.15,1.12-7.49,3.5-4.04,3.93-8.97,1.31-13.38.91-.47,1.82-.94,2.19-1.13.77-2.9,1.74-5.36,2.03-7.89.42-3.57,1.83-7.08-.99-10.78-1.2-1.58-.96-5.78.34-7.44,3.55-4.55,4.88-10.46,9.6-14.32,2.88-2.35,1.06-6.08.82-9.22-.08-1.01-.41-1.99-.61-2.93,6.98-3.19,9.91-11.33,6.51-18.09-1.13-2.24-.96-4.01.48-5.84,1.67-2.12,2.67-4.24,1.09-6.95-.48-.83-.69-2.28-.29-3.08,2.66-5.33,5.51-10.55,8.94-17.03-.37-1.45-1.11-4.36-1.85-7.29,4.85-5.25,9.21-10.78,9.66-18.45.17-2.94,3.61-7.02,6.91-9.17,2.57.78,4.84,2.02,7.13,2.07,7.07.16,13.37,1.42,16.96,8.46.23.45,1.1.56,1.67.84l-.18-.15c1.55.99,3.09,1.99,4.64,2.99-.39,2.92-.72,5.47-3.03,8.09-2.71,3.08-5.05,7.28-2.08,12.08.88,1.42.85,3.77.47,5.52-1.08,4.97-1.51,9.8-.1,14.82.59,2.13.45,4.66-.05,6.85-1.06,4.67-3.1,9.16-3.71,13.86-.48,3.68-2.15,7.79.58,11.35,3.38,4.4,2.49,9.08,1.36,13.91-1.29,5.53-2.34,11.12-3.69,17.62-4.69,3.26-6.8,9.16-9.41,15.25-3.82,8.93-2.81,18.44-5.32,27.41-.24.84.04,2.06.53,2.81,1.4,2.15,1.21,3.99-.62,5.67-1.23,1.13-1.91,2.19-.49,3.7.32.34.45,1.42.19,1.68-5.09,5.04-2.68,12.54-6.05,18.26-1.34,2.28-2.3,5.36-1.14,8.52.35.96-.59,2.77-1.46,3.72-1.99,2.15-2.78,3.98-.64,6.61,3.27,4.01,2.04,9.17,3.51,14.26-1.64-.2-2.75-.33-4.7-.57-.52,1.98-1.42,4.08-1.56,6.23-.58,8.62-.89,17.26-1.37,25.89-.1,1.76.28,3.51-2.13,4.73-1.5.76-2.08,3.35-2.99,4.99,2.49,2.45,3.78,5.08,3.85,7.89-.9.15-1.87.24-2.8.49-5.07,1.32-6.72,5.11-4.17,9.57.94,1.64,2.27,3.14,2.86,4.89.57,1.68,1.01,3.8.48,5.39-2.76,8.32-5.26,16.81-8.99,24.7-4.35,9.21-3.11,19.02-4.83,28.48-.78,4.3-2.43,8.45-3.82,12.62-1.05,3.15-3.31,6.26-3.25,9.35.08,4.17-2.03,7.15-3.31,10.63-1,2.72-2.05,5.49-2.49,8.33-1.79,11.45-3.4,22.92-4.94,34.41-.25,1.83-.26,3.9.36,5.59,1.26,3.44.65,6.62-.21,9.95-.83,3.19-.61,6.86-2.13,9.6-1.77,3.17-1.96,5.96-1.32,9.27.2,1.02-.92,2.26-1.33,3.44-.61,1.76-1.53,3.55-1.58,5.35-.07,2.36,1.45,4.82-1.44,6.68-.53.34-.61,2.12-.25,2.97,2.6,6.25-.28,11.55-2.03,17.38-1.67,5.55-4.82,10.91-4.12,17.13.34,3.03-2.27,5.89-.55,9.18.33.63-.71,2.45-1.58,3.15-4.7,3.74-5.59,9.57-5.01,14.28.73,5.89-1.28,10.11-3.79,14.71-1.66,3.05-2.73,5.91-2.03,9.95.59,3.45-1.98,7.48-3.31,11.21-.91,2.55-1.99,5.04-3.14,7.48-.98,2.07-2.23,4.02-3.29,6.06-1.13,2.17-2.8,4.29-3.15,6.6-.91,5.97-1.24,12.03-1.79,18.05-.13,1.42.05,2.92-.33,4.26-1.8,6.22-3.64,12.44-5.73,18.57-.51,1.49-1.85,2.86-3.13,3.88-2.97,2.37-6.07,4.6-9.25,6.7-2.71,1.79-6.1,1.65-8.2-.56-2.74-2.87-5.36-5.91-7.64-9.15-4.44-6.33-5.19-13.99-7.25-21.19-1.08-3.77-2.05-7.97-4.42-10.88-4.21-5.18-3.71-10.71-3.7-16.64.02-8.01.83-16.15-3.77-23.69-2.34-3.83-3.6-8.56-4.38-13.05-1.38-7.88-2.44-15.87-2.77-23.85-.15-3.75,1.7-7.59,3.72-11.28-.61-1.07-1.23-2.14-1.83-3.18,1.01-2.03,2.43-3.96,2.9-6.09.65-2.97-2.84-2.15-3.85-3.26-.39-5.88-.81-11.46-1.09-17.04-.07-1.35-.17-3.41.59-3.95,3.14-2.21,2.81-5.29,1.98-8-1.18-3.87-.53-7.5-.05-11.28.49-3.86,1.7-7.81-1.03-11.49-.41-.55.15-2.06.6-2.96,1.76-3.52,1.32-7.45-1.63-11.03,2.1-1.29,3.44-2.82,2.29-5.74-.3-.77,2.32-2.69,3.85-4.35-2.58-1.95-3.54-4.62-3.65-7.99-.06-2.04-1.73-4-2.5-6.06-1.07-2.87-1.97-5.81-2.95-8.72-.73-2.16-1.5-4.3-2.24-6.46-1.81-5.3-5.06-10.3-3.46-16.33.21-.81.08-1.72.36-2.49,1.51-4.02,3.1-8.02,4.6-11.84-4.45-3.25-4.15-3.14-2.57-7.41.89-2.41.45-5.24-1.98-7.06-1.67-1.25-3.45-2.35-5.63-3.81-.36,4.91-1.03,9.49-.16,14.54.89,5.16-.29,10.67-.54,16.03-.12,2.52-.24,5.03-.29,7.55-.03,1.46.61,3.19.03,4.34-4.09,8.12.82,17.24-2.97,25.34,1.81,6.45-.33,12.95.26,19.42.07.83.56,1.79.28,2.44-3.84,9.02-2.7,19.08-6.34,28.27-3.6,9.09-6.77,18.6-4.82,28.79.19,1,.05,2.14-.23,3.14-2.35,8.39-1.81,16.82-.67,25.31.21,1.58-.75,3.28-.8,4.93-.06,2.03.19,4.09.46,6.11.1.77,1.07,1.94.86,2.17-2.76,2.85-1.45,6.35-1.21,9.38.41,5.21.39,10.3-.56,15.44-.16.85.74,1.88,1.14,2.84.41.97,1.3,2.02,1.16,2.9-1.23,7.35.45,14.73-.02,22.59-4.19.33-6.53,2.67-7.37,6.9,1.37.84,2.85,1.75,5.55,3.41-3.01.35-4.67.55-6.3.74-.1.56-.37,1.21-.21,1.34,3.89,3.29,3.79,6.13,1.54,11.09-2.31,5.1-6,10.98-3.12,17.45.15.34.1.91-.1,1.24-3.63,6.07-1.36,13.01-2.84,19.4-.56,2.41-.36,4.99-.87,7.41-.49,2.34-1.45,4.59-2.47,7.72,2.65,5.71.56,11.49-3.61,16.87-1.82,2.35-4.26,4.45-3.05,7.96-4.09,2.01-4.5,6.59-6.88,9.8-1.62,2.19-3.09,4.52-4.98,6.45-3.36,3.43-8.04,2.89-12.3,3.43-2.25.28-4.57.05-7.35.05-2.78-2.86-7.63-5.05-4.93-11.14-1.16-.83-2.28-1.82-3.56-2.52-6.32-3.44-8.58-10.22-8.94-15.92-.55-8.85-2.78-17.53-2.71-26.28.07-9.99-.73-20.14,1.74-30.03.2-.82.49-1.71.34-2.5-1.8-9.68.02-19.27,1.04-29.41-6.25.32-12.21-.32-16.25-5.18-2.64-3.17-4.42-7.05-6.58-10.62-.87-1.44-1.35-3.58-2.61-4.25-4.08-2.16-4.72-5.89-4.81-9.66-.19-8.39-.51-16.65,2.05-25.04,2.36-7.76,3.01-16.15,3.47-24.32.19-3.41,3.55-6.54,1.04-10.19-.05-.07.86-.77,1.3-1.19,3.91-3.68,6.62-8.56,5.37-13.5-1.43-5.65,2.75-7.75,5.32-9.63,2.38-1.75,3.78-3.54,4.91-5.63-.47-5.29-5.83-3.77-8.88-6.5,5.51-3.12,4.79-7.81,4.16-12.61-.31-2.42-.2-4.95.11-7.38.23-1.81,1.07-3.55,1.8-5.85-.63-.34-1.82-.98-3.48-1.87,2.45-4.01,4.9-7.78,7.05-11.71.75-1.36,1.41-3.34.99-4.68-2.47-7.84-.54-14.19,5.56-19.56,1.38-1.22,2.28-2.99,3.98-5.29,5.36-1.12,5.6-2.31,3.03-8.35-1.19-2.81-1.63-7.15-.25-9.57,2.14-3.76,1.17-5.67-1.83-7.42,3.13-2.55,5.87-4.79,8.58-6.99-2.09-2.21-4.59-3.71-5.1-5.71-.54-2.13.83-4.73,1.32-7.14.12-.59.02-1.22.09-1.83.37-3.3,3.38-9.41,5.17-13.04,1.1-2.22,1.3-5.27.85-7.76-.59-3.27.13-6.12.58-9.25.63-4.43,0-9.09-.42-13.63-.83-9.26-1.01-18.13,5.39-26.08,3.28-4.07,6.85-8.04,8.82-13.28,1.12-2.98,4.76-5.02,7.02-7.25-.1-.96.02-1.53-.21-1.76-3.22-3.21-2.5-7.13-1.94-10.95.3-2.02,1.59-3.92.03-6.02-.34-.46-.18-1.73.23-2.25,4.34-5.49,2.46-10.91-.17-16.66,3.17-.26,5.06-2.33,5.98-4.99,1.23-3.55,2.12-7.24,2.87-10.94.56-2.75.3-5.4,2.2-8.12,2.14-3.05-.33-5.92-2.21-7.12-.36-4.2-.64-7.51-1.05-12.23,1.59-1.76,2.89-5.15.44-8.61,3.01-4.81,5.49-9.43,8.61-13.57,2.74-3.63,3.07-7.75,3.36-11.81.67-9.07.88-18.18,1.18-27.28.06-1.86-.49-3.72-.52-5.59-.07-4.48-1.1-8.89,1.98-13.18,2.34-3.27,3.28-7.52,5-11.26.6-1.3,1.71-2.38,2.49-3.43,3.24,1.37,5.72,2.42,8.62,3.64,2.07-1.93,3.68-4.82,7.99-3.88,2,.44,5.66-1.99,6.96-4.1,2.68-4.36,6-2.68,9.81-2.6-.56,7.76,4.84,11.36,9.72,15.53,3.41,2.92,6.21,6.55,9.27,9.84,1.86-.31,3.65-.61,5.4-.9,0,1.73-.05,3.11,0,4.49.09,1.94,3.14,4.21-.7,5.73-.23.09-.18,1.14-.11,1.72.66,5.6,1.24,11.22,2.09,16.79.38,2.51-.66,4.03-1.88,6.11-1.31,2.24.41,6.38-1.02,8.39-1.93,2.72-2.18,5.06-1.28,7.8-1.31.64-2.23,1.09-3.22,1.58,5.36,10.43-2.65,15.43-8.86,20.91.38.94.55,1.55.85,2.07.31.53.75.98,1.29,1.67,3.66-1.42,7.25-1.98,9.81,2.65-1.36,2.3-3.24,4.39.36,7.54,2.35,2.06,3.3,6.68,1.94,10.53-.74,2.11-.2,3.6,1.27,5.14,1.75,1.83,3.57,3.69,4.86,5.84,4.24,7.08,6.17,15.1,8.98,22.77.19.53.15,1.25-.04,1.8-2.81,8.45-2.29,16.93-.9,25.57.58,3.6.03,7.46-.48,11.14-.51,3.75,1.48,5.38,4.5,6.6-1.24,2.56-3.16,5-3.55,7.67-.59,4.03-.65,8.33.13,12.3.36,1.84,3.23,3.2,5.06,4.86-2.13,3.78-3.5-.8-5.72-.49-3.52,4.1-1.65,8.16.64,12.23l-.11-.15v.02Z" fill="#000" stroke-width="0"/>
</svg>